<?xml version="1.0" encoding="UTF-8"?>
<svg xmlns="http://www.w3.org/2000/svg" xmlns:xlink="http://www.w3.org/1999/xlink" width="240px" height="267px" viewBox="0 0 180 200" version="1.1">
<g id="surface1">
<path style=" stroke:none;fill-rule:evenodd;fill:rgb(100%,45.098039%,14.117647%);fill-opacity:1;" d="M 178.476562 43.535156 C 126.25 57.140625 79.921875 81.210938 42.714844 121.816406 C 52.101562 132.136719 62.832031 135.300781 75.566406 137.71875 C 102.914062 109.0625 136.441406 90.859375 174.195312 79.808594 C 183.46875 77.089844 178.789062 52.007812 178.476562 43.535156 Z M 178.476562 43.535156 "/>
<path style=" stroke:none;fill-rule:evenodd;fill:rgb(100%,45.098039%,14.117647%);fill-opacity:1;" d="M 40.878906 45.199219 C 1.789062 68.121094 -11.605469 118.902344 10.960938 158.597656 C 22.613281 179.09375 41.578125 192.632812 62.574219 197.78125 C 125.921875 213.28125 178.863281 144.65625 176.625 84.441406 C 140.632812 95.296875 109.351562 113.066406 83.757812 139.179688 C 158.949219 152.339844 91.175781 206.191406 43.003906 173.125 C 8.449219 149.402344 4.417969 104.894531 24.050781 71.59375 C 36.113281 51.132812 53 43.324219 73.367188 34.5 C 62.246094 35.65625 51.179688 39.15625 40.878906 45.199219 Z M 40.878906 45.199219 "/>
<path style=" stroke:none;fill-rule:evenodd;fill:rgb(100%,45.098039%,14.117647%);fill-opacity:1;" d="M 178.214844 0.75 C 108.816406 22.507812 33.820312 42.203125 29.496094 87.992188 C 28.535156 94.796875 29.949219 102.222656 34.609375 110.421875 C 36.105469 113.046875 37.628906 115.394531 39.191406 117.507812 C 74.835938 76.503906 120.378906 52.160156 174.484375 38.152344 C 183.84375 35.730469 178.527344 9.21875 178.214844 0.75 Z M 178.214844 0.75 "/>
</g>
</svg>
